<!DOCTYPE svg PUBLIC "-//W3C//DTD SVG 1.1//EN" "http://www.w3.org/Graphics/SVG/1.1/DTD/svg11.dtd">
<!-- Uploaded to: SVG Repo, www.svgrepo.com, Transformed by: SVG Repo Mixer Tools -->
<svg fill="#000000" height="800px" width="800px" version="1.1" id="Layer_1" xmlns="http://www.w3.org/2000/svg" xmlns:xlink="http://www.w3.org/1999/xlink" viewBox="0 0 512 512" xml:space="preserve">
<g id="SVGRepo_bgCarrier" stroke-width="0"/>
<g id="SVGRepo_tracerCarrier" stroke-linecap="round" stroke-linejoin="round"/>
<g id="SVGRepo_iconCarrier"> <g> <g> <path d="M371.44,0H12.292C7.865,0,4.276,3.589,4.276,8.017v299.29c0,4.427,3.589,8.017,8.017,8.017 c4.427,0,8.017-3.589,8.017-8.017V16.033h343.115v394.422H294.48c-4.427,0-8.017,3.589-8.017,8.017v68.944H20.309V350.063 c0-4.427-3.589-8.017-8.017-8.017c-4.427,0-8.017,3.589-8.017,8.017v145.37c0,4.427,3.589,8.017,8.017,8.017H294.48 c2.101,0,4.183-0.863,5.668-2.348l76.96-76.96c1.486-1.485,2.348-3.568,2.348-5.668V8.017C379.457,3.589,375.868,0,371.44,0z M302.497,476.079v-49.59h49.59L302.497,476.079z"/> </g> </g> <g> <g> <path d="M499.708,273.637c-4.427,0-8.017,3.589-8.017,8.017V444.66h-9.62V230.347c0-4.427-3.589-8.017-8.017-8.017 c-4.427,0-8.017,3.589-8.017,8.017v94.597h-52.376V110.096h52.376v77.495c0,4.427,3.589,8.017,8.017,8.017 c4.427,0,8.017-3.589,8.017-8.017v-85.511c0-1.236-0.294-2.48-0.847-3.585l-33.358-66.716V8.017c0-4.427-3.589-8.017-8.017-8.017 c-4.427,0-8.017,3.589-8.017,8.017v23.761l-33.358,66.716c-0.553,1.105-0.847,2.349-0.847,3.585v367.699 c0,23.281,18.941,42.221,42.221,42.221c23.281,0,42.221-18.941,42.221-42.221v-9.086h17.637c4.427,0,8.017-3.589,8.017-8.017 V281.653C507.724,277.226,504.135,273.637,499.708,273.637z M439.85,51.597l21.234,42.466h-42.466L439.85,51.597z M466.038,469.779c0,14.44-11.748,26.188-26.188,26.188c-14.44,0-26.188-11.748-26.188-26.188V340.977h52.376V469.779z"/> </g> </g> <g> <g> <path d="M248.842,104.962l-51.307-51.307c-3.131-3.131-8.207-3.131-11.337,0l-51.307,51.307c-1.504,1.503-2.348,3.542-2.348,5.668 v102.614c0,4.427,3.589,8.017,8.017,8.017h34.205c4.427,0,8.017-3.589,8.017-8.017v-51.841h18.171v51.841 c0,4.427,3.589,8.017,8.017,8.017h34.205c4.427,0,8.017-3.589,8.017-8.017V110.63C251.19,108.504,250.346,106.465,248.842,104.962 z M235.157,205.228h-18.171v-51.841c0-4.427-3.589-8.017-8.017-8.017h-34.205c-4.427,0-8.017,3.589-8.017,8.017v51.841h-18.171 V113.95l43.29-43.29l43.29,43.29V205.228z"/> </g> </g> <g> <g> <path d="M311.582,265.086H140.56c-4.427,0-8.017,3.589-8.017,8.017s3.589,8.017,8.017,8.017h171.023 c4.427,0,8.017-3.589,8.017-8.017S316.01,265.086,311.582,265.086z"/> </g> </g> <g> <g> <path d="M311.582,333.495H140.56c-4.427,0-8.017,3.589-8.017,8.017s3.589,8.017,8.017,8.017h171.023 c4.427,0,8.017-3.589,8.017-8.017S316.01,333.495,311.582,333.495z"/> </g> </g> <g> <g> <path d="M243.173,401.904H140.56c-4.427,0-8.017,3.589-8.017,8.017c0,4.427,3.589,8.017,8.017,8.017h102.614 c4.427,0,8.017-3.589,8.017-8.017C251.19,405.493,247.601,401.904,243.173,401.904z"/> </g> </g> <g> <g> <path d="M89.253,247.983c-13.851,0-25.119,11.268-25.119,25.119c0,13.851,11.268,25.119,25.119,25.119 s25.119-11.268,25.119-25.119C114.372,259.252,103.103,247.983,89.253,247.983z M89.253,282.188c-5.01,0-9.086-4.076-9.086-9.086 c0-5.01,4.076-9.086,9.086-9.086s9.086,4.076,9.086,9.086C98.338,278.112,94.263,282.188,89.253,282.188z"/> </g> </g> <g> <g> <path d="M89.253,316.393c-13.851,0-25.119,11.268-25.119,25.119c0,13.851,11.268,25.119,25.119,25.119 s25.119-11.268,25.119-25.119C114.372,327.661,103.103,316.393,89.253,316.393z M89.253,350.597c-5.01,0-9.086-4.076-9.086-9.086 c0-5.01,4.076-9.086,9.086-9.086s9.086,4.076,9.086,9.086C98.338,346.521,94.263,350.597,89.253,350.597z"/> </g> </g> <g> <g> <path d="M89.253,384.802c-13.851,0-25.119,11.268-25.119,25.119c0,13.851,11.268,25.119,25.119,25.119 s25.119-11.268,25.119-25.119C114.372,396.07,103.103,384.802,89.253,384.802z M89.253,419.006c-5.01,0-9.086-4.076-9.086-9.086 c0-5.01,4.076-9.086,9.086-9.086s9.086,4.076,9.086,9.086C98.338,414.931,94.263,419.006,89.253,419.006z"/> </g> </g> </g>
</svg>